<?xml version="1.0" standalone="no"?>
<!DOCTYPE svg PUBLIC "-//W3C//DTD SVG 20010904//EN"
 "http://www.w3.org/TR/2001/REC-SVG-20010904/DTD/svg10.dtd">
<svg version="1.0" xmlns="http://www.w3.org/2000/svg"
 width="512.000000pt" height="512.000000pt" viewBox="0 0 512.000000 512.000000"
 preserveAspectRatio="xMidYMid meet">
<metadata>
Created by potrace 1.11, written by Peter Selinger 2001-2013
</metadata>
<g transform="translate(0.000000,512.000000) scale(0.100000,-0.100000)"
fill="#000000" stroke="none">
<path d="M0 2008 l0 -2008 2560 0 2560 0 0 635 c0 440 -3 635 -11 635 -5 0 -8
4 -5 9 7 11 -22 23 -36 14 -6 -3 -8 -1 -4 5 3 6 2 13 -4 17 -6 4 -7 11 -4 17
5 7 0 9 -14 6 -16 -4 -19 -2 -15 10 5 10 2 13 -6 8 -8 -6 -11 -2 -9 10 2 10
-3 19 -9 20 -7 1 -17 2 -23 3 -5 0 -10 8 -10 16 0 8 -3 14 -7 12 -5 -1 -8 0
-8 3 0 12 -30 38 -38 33 -5 -3 -15 3 -23 13 -9 11 -13 14 -10 7 4 -7 -1 -9
-14 -6 -11 3 -20 10 -20 15 0 5 -4 6 -10 3 -6 -3 -7 1 -4 10 4 9 3 15 -2 14
-21 -4 -28 2 -14 11 11 7 11 10 2 10 -7 0 -10 5 -7 10 3 6 -3 10 -13 10 -11 0
-26 8 -33 18 -13 16 -13 16 6 2 18 -14 19 -14 7 2 -8 10 -20 14 -29 11 -11 -4
-14 -2 -9 5 4 7 3 12 -3 12 -6 0 -20 10 -32 23 -12 12 -19 15 -15 7 4 -8 0 -6
-8 4 -9 11 -16 25 -16 30 0 6 -5 4 -10 -4 -8 -13 -10 -12 -10 4 0 12 -5 16
-16 12 -8 -3 -13 -2 -10 3 3 5 -4 8 -17 7 -18 -1 -22 -6 -21 -28 1 -16 -4 -29
-15 -34 -28 -12 -41 -13 -41 -1 0 7 -5 5 -10 -3 -6 -10 -10 -11 -10 -2 0 6 -5
12 -11 12 -5 0 -7 -4 -4 -10 4 -6 -1 -7 -11 -3 -11 4 -15 3 -10 -5 3 -6 1 -14
-5 -18 -8 -4 -9 -3 -5 4 4 7 1 12 -6 12 -9 0 -9 3 2 10 8 5 11 10 6 10 -6 0
-1 7 10 15 16 13 17 16 4 25 -12 8 -10 10 10 10 19 0 22 2 10 10 -12 8 -12 10
2 15 10 4 15 16 13 30 -1 15 2 22 8 18 6 -4 8 0 4 11 -4 10 -7 20 -7 23 0 3
-8 -1 -17 -8 -15 -13 -16 -12 -11 9 4 12 3 20 -2 17 -4 -3 -13 2 -20 10 -10
12 -16 13 -28 3 -13 -10 -14 -10 -8 0 4 7 2 12 -4 12 -7 0 -10 6 -7 14 4 9 0
13 -11 12 -9 -2 -23 5 -30 15 -7 11 -20 19 -29 19 -10 0 -13 6 -9 16 3 8 2 12
-4 9 -16 -10 -50 5 -50 21 0 8 -5 14 -11 14 -5 0 -7 -5 -3 -12 4 -7 3 -8 -5
-4 -6 4 -9 12 -5 17 3 6 -3 13 -15 16 -12 3 -21 9 -21 14 0 5 -9 9 -21 9 -11
0 -17 5 -14 10 3 5 -1 10 -10 10 -10 0 -13 5 -9 12 5 8 2 9 -9 5 -12 -4 -17
-1 -18 11 0 10 -3 12 -6 5 -3 -8 -9 -9 -16 -3 -63 51 -78 61 -87 55 -6 -3 -10
4 -10 17 0 15 -3 19 -8 11 -6 -9 -12 -7 -22 7 -8 11 -22 20 -32 20 -9 0 -23 8
-30 18 -7 9 -19 18 -27 20 -8 2 -20 10 -26 19 -7 10 -17 13 -25 8 -9 -5 -11
-4 -6 3 4 7 2 12 -4 12 -6 0 -8 5 -4 13 5 7 0 6 -11 -3 -11 -9 -16 -10 -11 -2
4 7 1 12 -9 12 -9 0 -13 4 -10 10 4 6 -1 7 -11 3 -10 -4 -15 -2 -11 4 3 5 0
10 -8 10 -8 0 -14 -3 -13 -6 2 -19 -4 -22 -18 -11 -8 8 -14 9 -13 4 4 -21 -2
-34 -15 -34 -22 0 -66 -26 -58 -34 4 -4 0 -6 -8 -4 -8 2 -18 8 -22 13 -5 7 -8
7 -9 0 -4 -43 -22 -75 -42 -75 -6 0 -2 7 9 15 18 15 18 15 0 8 -13 -4 -17 -3
-12 5 4 7 15 12 24 12 15 0 15 2 2 10 -12 8 -12 10 -1 10 8 0 11 7 8 20 -3 11
-1 18 3 15 5 -3 11 -1 15 5 3 5 0 10 -7 11 -7 0 -2 5 12 10 20 8 22 12 10 19
-13 9 -13 10 0 11 8 1 19 1 23 0 5 -1 6 3 2 9 -3 6 -12 7 -18 3 -8 -5 -8 -2 0
9 7 8 9 19 5 23 -4 5 2 5 12 1 19 -7 19 -6 2 13 -10 11 -23 18 -27 15 -5 -3
-9 0 -9 5 0 6 -7 11 -16 11 -8 0 -12 5 -8 11 4 8 0 9 -15 4 -17 -5 -20 -3 -14
11 4 11 2 15 -4 11 -6 -4 -16 0 -23 8 -7 8 -16 12 -22 9 -12 -7 -60 24 -54 35
3 5 -5 7 -19 6 -17 -2 -22 1 -18 11 3 9 0 14 -8 12 -8 -2 -13 3 -11 11 3 12 0
12 -12 1 -14 -11 -20 -7 -18 12 1 3 -5 9 -14 12 -10 4 -13 2 -8 -7 5 -8 2 -8
-9 2 -9 7 -14 18 -10 25 3 6 0 6 -8 -1 -17 -16 -33 -17 -23 -1 5 7 2 9 -9 5
-11 -4 -14 -2 -11 7 3 7 -2 16 -11 20 -9 3 -13 2 -10 -4 3 -6 -1 -7 -9 -4 -9
3 -14 10 -11 14 7 11 -24 22 -37 13 -7 -3 -8 -1 -4 5 4 7 1 12 -9 12 -9 0 -13
4 -10 10 3 6 -1 7 -9 4 -11 -4 -16 0 -16 12 0 15 -2 16 -9 5 -7 -11 -10 -9
-15 7 -5 14 -12 19 -23 15 -11 -4 -14 -2 -9 5 4 7 -1 10 -14 7 -11 -2 -18 0
-15 6 4 5 1 9 -5 9 -6 0 -8 5 -4 13 6 9 5 9 -7 0 -12 -10 -18 -9 -29 7 -10 14
-16 16 -22 7 -6 -9 -8 -9 -8 1 0 8 -5 10 -12 6 -8 -5 -7 0 2 11 10 12 10 16 2
11 -7 -4 -20 -2 -29 6 -12 9 -15 9 -9 1 4 -7 2 -13 -3 -13 -10 0 -15 13 -13
31 1 4 -8 4 -20 1 -16 -4 -19 -2 -13 8 6 10 4 12 -8 7 -10 -3 -17 -2 -17 3 0
6 -5 10 -11 10 -5 0 -7 -6 -3 -12 5 -9 2 -9 -9 1 -13 10 -17 10 -17 1 0 -10
-3 -10 -14 -1 -11 10 -16 8 -24 -6 -6 -10 -14 -15 -18 -11 -4 4 -12 0 -19 -9
-7 -9 -23 -18 -36 -20 -13 -2 -26 -7 -29 -11 -5 -9 -38 -24 -55 -27 -24 -3
-25 9 -3 33 13 14 16 22 8 18 -8 -4 -4 2 10 14 19 17 21 20 6 16 -15 -5 -17
-4 -8 7 7 8 8 18 4 23 -4 4 1 2 11 -6 10 -7 17 -9 16 -4 -1 5 0 11 1 14 6 12
5 58 -1 54 -4 -2 -10 3 -13 12 -3 8 -10 13 -15 9 -5 -3 -12 3 -15 13 -3 10
-15 18 -26 19 -13 1 -18 -2 -14 -9 4 -7 2 -8 -5 -4 -6 4 -9 12 -6 17 6 8 -8
13 -28 10 -4 0 -6 5 -5 11 2 8 -9 14 -25 16 -15 2 -25 8 -21 13 3 6 -2 9 -12
7 -11 -2 -18 2 -17 9 2 7 -4 10 -12 7 -8 -4 -17 1 -21 9 -3 9 -12 13 -20 10
-8 -3 -20 0 -28 6 -7 6 -17 7 -22 3 -4 -4 -3 0 4 9 11 14 9 16 -14 11 -20 -4
-25 -2 -19 8 5 9 2 10 -14 5 -17 -5 -20 -3 -14 12 5 15 4 16 -8 7 -11 -9 -17
-9 -26 1 -6 7 -9 17 -5 21 4 5 -1 2 -10 -5 -12 -9 -18 -10 -18 -2 0 6 -10 11
-22 11 -19 0 -20 2 -8 11 12 9 10 10 -8 6 -18 -4 -22 -2 -18 9 5 12 2 12 -15
3 -17 -9 -20 -8 -14 2 6 9 2 11 -13 7 -20 -6 -27 2 -23 24 0 4 -6 5 -14 2 -8
-4 -15 -1 -15 5 0 6 -6 8 -14 5 -8 -3 -17 0 -21 5 -3 6 -11 8 -17 5 -8 -5 -9
-1 -4 11 5 15 4 16 -8 6 -10 -8 -16 -9 -21 -1 -3 5 -1 10 6 10 7 0 10 3 7 6
-4 3 -16 0 -28 -6 -18 -10 -21 -9 -15 1 6 9 3 11 -8 6 -11 -4 -14 -2 -11 8 4
10 0 13 -15 10 -14 -3 -21 1 -21 12 0 13 -3 13 -15 3 -10 -9 -15 -9 -15 -1 0
6 -7 11 -16 11 -8 0 -12 5 -9 10 9 14 -8 13 -23 -2 -9 -9 -11 -7 -8 9 4 19 2
20 -24 10 -16 -6 -27 -14 -24 -18 2 -4 -3 -10 -12 -13 -8 -3 -12 -2 -9 4 7 11
-57 -21 -66 -33 -3 -4 -19 -10 -35 -11 -18 -3 -28 -9 -26 -17 3 -11 1 -11 -9
-2 -10 10 -9 15 1 28 7 8 10 15 7 15 -3 0 5 12 18 26 21 22 23 30 13 42 -10
13 -10 14 0 8 8 -5 12 1 12 19 0 15 -4 24 -10 20 -6 -3 -10 0 -10 7 0 9 -3 9
-10 -2 -8 -13 -10 -12 -10 4 0 14 -5 17 -21 13 -14 -4 -19 -2 -16 7 4 9 -3 12
-21 9 -19 -3 -23 -2 -14 5 11 7 9 10 -7 15 -14 3 -19 1 -14 -6 4 -7 0 -6 -10
1 -9 8 -22 10 -28 6 -8 -5 -10 -2 -7 8 6 14 -2 17 -44 19 -9 0 -19 10 -22 22
-4 17 -8 19 -17 10 -9 -9 -16 -8 -28 5 -9 10 -13 13 -8 8 16 -22 6 -27 -13 -6
-11 12 -25 20 -33 17 -7 -3 -19 4 -25 14 -7 10 -18 19 -25 19 -9 0 -8 -3 2 -9
8 -5 9 -11 3 -15 -6 -3 -14 3 -17 14 -6 18 -9 19 -23 8 -13 -11 -15 -11 -10 3
5 12 0 15 -22 14 -21 -1 -27 2 -22 13 3 9 1 13 -5 9 -6 -4 -14 -1 -16 5 -4 10
-6 10 -6 1 -1 -10 -7 -10 -26 -1 -13 6 -22 14 -20 18 2 4 -8 7 -23 6 -15 -1
-26 4 -25 10 1 6 -5 11 -13 11 -8 0 -14 -5 -14 -11 0 -6 -4 -4 -9 4 -6 8 -7
19 -4 25 3 5 0 5 -7 -2 -11 -10 -16 -9 -27 5 -10 11 -12 12 -7 2 6 -12 4 -13
-7 -2 -7 6 -21 12 -32 12 -10 0 -16 4 -12 9 3 5 0 13 -6 17 -8 4 -9 3 -5 -4 8
-14 -29 -11 -41 3 -5 4 -2 5 6 0 10 -6 12 -4 7 4 -6 9 -11 9 -22 0 -12 -10
-16 -8 -21 10 -4 16 -8 19 -14 10 -6 -10 -13 -9 -30 6 -14 12 -19 14 -14 5 6
-10 1 -9 -13 3 -11 11 -25 16 -31 13 -5 -3 -11 -1 -13 6 -3 7 -9 8 -19 3 -8
-5 -24 -8 -36 -6 -16 1 -23 -3 -23 -13 0 -9 -5 -16 -11 -16 -5 0 -8 -4 -5 -8
9 -16 -12 -34 -42 -36 -25 -2 -29 1 -20 11 15 18 3 16 -16 -2 -13 -13 -17 -13
-32 3 -17 16 -17 16 -11 0 3 -10 2 -20 -3 -23 -6 -4 -10 3 -10 13 0 23 23 45
35 34 5 -4 5 -1 1 6 -4 7 -13 9 -19 5 -8 -5 -8 -2 0 9 7 8 9 19 5 23 -4 5 2 5
13 1 11 -4 16 -4 12 0 -4 4 -1 14 6 22 10 13 9 15 -3 8 -8 -4 -6 0 4 8 22 18
18 26 -13 29 -11 1 -21 5 -21 9 0 4 -11 8 -25 8 -14 0 -25 6 -25 13 0 8 -3 7
-10 -3 -8 -12 -10 -12 -15 2 -4 10 -14 14 -26 11 -11 -3 -19 0 -19 6 0 7 -4
10 -9 7 -5 -3 -12 1 -15 10 -5 13 -9 14 -20 5 -11 -9 -17 -8 -29 4 -17 17 -31
20 -22 5 3 -6 -1 -7 -9 -4 -9 3 -16 10 -16 15 0 5 -7 9 -15 9 -8 0 -15 6 -15
13 0 8 -4 7 -10 -3 -5 -8 -10 -10 -10 -5 0 6 -9 16 -21 23 -15 10 -19 10 -14
1 6 -8 -1 -10 -23 -7 -20 3 -29 1 -26 -6 3 -6 0 -4 -8 4 -12 14 -24 19 -57 24
-7 2 -17 10 -22 19 -5 9 -16 14 -24 11 -8 -4 -15 -1 -15 6 0 6 -4 9 -9 6 -5
-3 -11 1 -14 8 -3 8 -15 14 -26 13 l-21 -1 0 -2008z m1660 1171 c0 -12 -27
-12 -35 1 -4 6 1 7 11 3 13 -5 15 -3 9 7 -5 9 -4 11 3 6 7 -4 12 -11 12 -17z
m970 -513 c0 -3 -4 -8 -10 -11 -5 -3 -10 -1 -10 4 0 6 5 11 10 11 6 0 10 -2
10 -4z"/>
<path d="M2645 2719 c-3 -4 2 -6 10 -5 21 3 28 13 10 13 -9 0 -18 -4 -20 -8z"/>
<path d="M3959 2198 c-5 -18 -6 -38 -1 -34 7 8 12 36 6 36 -2 0 -4 -1 -5 -2z"/>
</g>
</svg>
